<svg version="1.1" id="Layer_1" xmlns="http://www.w3.org/2000/svg" xmlns:xlink="http://www.w3.org/1999/xlink" x="0px" y="0px"
	 width="100%" viewBox="0 0 66 54" enable-background="new 0 0 66 54" xml:space="preserve">
<path fill="#030303" opacity="1.000000" stroke="none" 
	d="
M42.000038,55.000000 
	C28.028200,55.000000 14.556382,55.000000 1.042282,55.000000 
	C1.042282,37.065842 1.042282,19.131569 1.042282,1.098645 
	C22.887917,1.098645 44.776424,1.098645 66.832466,1.098645 
	C66.832466,18.998735 66.832466,36.999233 66.832466,55.000000 
	C58.799244,55.000000 50.649647,55.000000 42.000038,55.000000 
M42.361897,45.055481 
	C51.416317,41.155331 55.608795,34.187569 54.923798,24.177996 
	C54.316536,15.304280 49.654907,9.284101 41.144455,7.457263 
	C41.682423,9.084952 42.605194,10.444767 43.596867,11.752330 
	C45.736362,14.573343 48.891636,17.054804 49.903278,20.226381 
	C54.477322,34.566399 45.040428,44.469643 28.916830,42.295273 
	C28.916830,37.227066 28.968039,32.101608 28.896923,26.977848 
	C28.856619,24.073959 28.766264,24.075214 25.171471,24.456961 
	C25.171471,31.701303 25.171471,38.945644 25.171471,47.116982 
	C30.867113,46.478371 36.232185,45.876823 42.361897,45.055481 
M16.032864,19.580437 
	C16.031254,24.738150 16.176435,29.901577 15.975917,35.051544 
	C15.844413,38.428955 17.448292,38.343029 20.014120,37.767868 
	C20.014120,34.015343 20.014120,30.539518 20.014120,27.063696 
	C20.014120,23.444607 20.014120,19.825516 20.014120,16.267195 
	C35.377895,14.780066 38.933300,16.609955 43.523064,28.015575 
	C44.639091,26.928061 45.874130,25.484011 45.651722,24.317945 
	C44.562714,18.608322 41.018013,14.406189 35.405861,13.324208 
	C29.180241,12.123956 22.718719,12.147294 16.032608,11.611630 
	C16.032608,14.655302 16.032608,16.629456 16.032864,19.580437 
z"/>
<path fill="#EDEDED" opacity="1.000000" stroke="none" 
	d="
M41.979576,45.165382 
	C36.232185,45.876823 30.867113,46.478371 25.171471,47.116982 
	C25.171471,38.945644 25.171471,31.701303 25.178841,24.455900 
	C28.766264,24.075214 28.856619,24.073959 28.896923,26.977848 
	C28.968039,32.101608 28.916830,37.227066 28.916830,42.295273 
	C45.040428,44.469643 54.477322,34.566399 49.903278,20.226381 
	C48.891636,17.054804 45.736362,14.573343 43.596867,11.752330 
	C42.605194,10.444767 41.682423,9.084952 41.144455,7.457263 
	C49.654907,9.284101 54.316536,15.304280 54.923798,24.177996 
	C55.608795,34.187569 51.416317,41.155331 41.979576,45.165382 
z"/>
<path fill="#EEEEEE" opacity="1.000000" stroke="none" 
	d="
M16.032736,19.092022 
	C16.032608,16.629456 16.032608,14.655302 16.032608,11.611630 
	C22.718719,12.147294 29.180241,12.123956 35.405861,13.324208 
	C41.018013,14.406189 44.562714,18.608322 45.651722,24.317945 
	C45.874130,25.484011 44.639091,26.928061 43.523064,28.015575 
	C38.933300,16.609955 35.377895,14.780066 20.014120,16.267195 
	C20.014120,19.825516 20.014120,23.444607 20.014120,27.063696 
	C20.014120,30.539518 20.014120,34.015343 20.014120,37.767868 
	C17.448292,38.343029 15.844413,38.428955 15.975917,35.051544 
	C16.176435,29.901577 16.031254,24.738150 16.032736,19.092022 
z"/>
</svg>